<svg xmlns="http://www.w3.org/2000/svg" width="1200" height="675" viewBox="0 0 1200 675" role="img" aria-label="Gaming">
  <defs>
    <linearGradient id="bg" x1="0" y1="0" x2="1" y2="1"><stop stop-color="#0A0A0F"/><stop offset="0.55" stop-color="#11111b"/><stop offset="1" stop-color="#0A0A0F"/></linearGradient>
    <radialGradient id="g1" cx="22%" cy="18%" r="60%"><stop stop-color="#FF6A00" stop-opacity="0.38"/><stop offset="1" stop-color="#FF6A00" stop-opacity="0"/></radialGradient>
    <radialGradient id="g2" cx="85%" cy="85%" r="60%"><stop stop-color="#8A2BE2" stop-opacity="0.36"/><stop offset="1" stop-color="#8A2BE2" stop-opacity="0"/></radialGradient>
    <filter id="glow"><feGaussianBlur stdDeviation="5" result="b"/><feMerge><feMergeNode in="b"/><feMergeNode in="SourceGraphic"/></feMerge></filter>
  </defs>
  <rect width="1200" height="675" fill="url(#bg)"/>
  <rect width="1200" height="675" fill="url(#g1)"/>
  <rect width="1200" height="675" fill="url(#g2)"/>
  <g opacity="0.16" stroke="#ffffff" stroke-width="1">
    <path d="M 0 0 V 675"/><path d="M 60 0 V 675"/><path d="M 120 0 V 675"/><path d="M 180 0 V 675"/><path d="M 240 0 V 675"/><path d="M 300 0 V 675"/><path d="M 360 0 V 675"/><path d="M 420 0 V 675"/><path d="M 480 0 V 675"/><path d="M 540 0 V 675"/><path d="M 600 0 V 675"/><path d="M 660 0 V 675"/><path d="M 720 0 V 675"/><path d="M 780 0 V 675"/><path d="M 840 0 V 675"/><path d="M 900 0 V 675"/><path d="M 960 0 V 675"/><path d="M 1020 0 V 675"/><path d="M 1080 0 V 675"/><path d="M 1140 0 V 675"/><path d="M 1200 0 V 675"/>
    <path d="M 0 0 H 1200"/><path d="M 0 60 H 1200"/><path d="M 0 120 H 1200"/><path d="M 0 180 H 1200"/><path d="M 0 240 H 1200"/><path d="M 0 300 H 1200"/><path d="M 0 360 H 1200"/><path d="M 0 420 H 1200"/><path d="M 0 480 H 1200"/><path d="M 0 540 H 1200"/><path d="M 0 600 H 1200"/><path d="M 0 660 H 1200"/>
  </g>
  <rect x="58" y="58" width="1084" height="559" rx="34" fill="#0A0A0F" fill-opacity="0.58" stroke="#FF6A00" stroke-opacity="0.45"/>
  <text x="92" y="132" font-family="Arial Black, Orbitron, sans-serif" font-size="34" fill="#FF6A00" letter-spacing="6">XETHKIOZ NEWS</text>
  <text x="600" y="315" font-family="Arial Black, Orbitron, sans-serif" font-size="130" text-anchor="middle" fill="#fff" filter="url(#glow)">🎮</text>
  <text x="600" y="430" font-family="Arial Black, Orbitron, sans-serif" font-size="58" text-anchor="middle" fill="#fff">Gaming</text>
  <text x="600" y="488" font-family="Inter, Arial, sans-serif" font-size="28" text-anchor="middle" fill="#C7C7D4">Noticias, esports, análisis y cultura gamer</text>
  <text x="92" y="578" font-family="Arial Black, Orbitron, sans-serif" font-size="24" fill="#8A2BE2">Gaming Is My Passion • Beyond The Game</text>
</svg>