<svg width="64" height="64" viewBox="0 0 64 64" fill="none" xmlns="http://www.w3.org/2000/svg">
  <defs>
    <linearGradient id="og" x1="0%" y1="0%" x2="100%" y2="100%"><stop offset="0%" stop-color="#FF8A1A"/><stop offset="100%" stop-color="#FF6A00"/></linearGradient>
    <linearGradient id="pg" x1="0%" y1="0%" x2="100%" y2="100%"><stop offset="0%" stop-color="#B576FF"/><stop offset="100%" stop-color="#8A2BE2"/></linearGradient>
  </defs>
  <rect width="64" height="64" rx="14" fill="#0A0A0F"/>
  <path d="M14 14 L20 14 L24 22 L28 14 L34 14 L28 30 L34 46 L28 46 L24 38 L20 46 L14 46 L20 30 Z" fill="url(#og)"/>
  <path d="M40 16 L44 12 L48 16 L46 20 L50 20 L48 24 L44 24 L44 30 L48 30 L50 34 L46 34 L48 38 L44 42 L40 38 L42 34 L38 34 L40 30 L44 30 L44 24 L40 24 L38 20 L42 20 Z" fill="url(#pg)" opacity="0.9"/>
</svg>
