<svg width="1200" height="630" viewBox="0 0 1200 630" fill="none" xmlns="http://www.w3.org/2000/svg">
  <defs>
    <linearGradient id="bg" x1="0%" y1="0%" x2="100%" y2="100%"><stop offset="0%" stop-color="#0A0A0F"/><stop offset="100%" stop-color="#15151E"/></linearGradient>
    <linearGradient id="og" x1="0%" y1="0%" x2="100%" y2="100%"><stop offset="0%" stop-color="#FF8A1A"/><stop offset="100%" stop-color="#FF6A00"/></linearGradient>
    <linearGradient id="pg" x1="0%" y1="0%" x2="100%" y2="100%"><stop offset="0%" stop-color="#B576FF"/><stop offset="100%" stop-color="#8A2BE2"/></linearGradient>
    <filter id="glow"><feGaussianBlur stdDeviation="3" result="b"/><feMerge><feMergeNode in="b"/><feMergeNode in="SourceGraphic"/></feMerge></filter>
  </defs>
  <rect width="1200" height="630" fill="url(#bg)"/>
  <circle cx="200" cy="150" r="200" fill="#FF6A00" opacity="0.08"/>
  <circle cx="1000" cy="500" r="200" fill="#8A2BE2" opacity="0.08"/>
  <g transform="translate(420, 200)" filter="url(#glow)">
    <path d="M20 40 L40 40 L55 65 L70 40 L90 40 L70 90 L90 140 L70 140 L55 115 L40 140 L20 140 L40 90 Z" fill="url(#og)"/>
    <path d="M110 45 L120 35 L130 45 L125 55 L135 55 L130 65 L120 65 L120 80 L130 80 L135 90 L125 90 L130 100 L120 110 L110 100 L115 90 L105 90 L110 80 L120 80 L120 65 L110 65 L105 55 L115 55 Z" fill="url(#pg)" opacity="0.9"/>
    <text x="150" y="100" font-family="Orbitron, sans-serif" font-weight="900" font-size="70" fill="url(#pg)">ETHKIOZ</text>
  </g>
  <text x="600" y="420" text-anchor="middle" font-family="Inter, sans-serif" font-weight="600" font-size="32" fill="#FFFFFF" opacity="0.9">Tu portal al futuro del gaming y la tecnología</text>
  <text x="600" y="480" text-anchor="middle" font-family="Orbitron, sans-serif" font-weight="700" font-size="20" fill="#FF6A00" letter-spacing="4">GAMING • TECH • SCIENCE • STREAMING</text>
</svg>
