<svg xmlns="http://www.w3.org/2000/svg" width="320" height="32" viewBox="0 0 320 32" shape-rendering="crispEdges">
<rect width="320" height="32" fill="none"/>
<!-- Alexis --> <g transform="translate(0 0)"><ellipse cx="16" cy="28" rx="8" ry="2" fill="#071019" opacity=".4"/><path d="M7 12h18v15H7z" fill="#171a20"/><path d="M9 7h14v9H9z" fill="#111419"/><path d="M12 9h8v6h-8z" fill="#d2a27b"/><rect x="14" y="11" width="2" height="2" fill="#8cc8e8"/><rect x="19" y="11" width="2" height="2" fill="#8cc8e8"/><path d="M8 17h16v3H8z" fill="#5b3d7d"/></g>
<!-- Elida --> <g transform="translate(32 0)"><ellipse cx="16" cy="28" rx="8" ry="2" fill="#071019" opacity=".4"/><path d="M7 14h18v13H7z" fill="#6f8d65"/><path d="M10 7h12v9H10z" fill="#f0e6db"/><path d="M12 9h8v6h-8z" fill="#e3bb99"/><rect x="13" y="11" width="2" height="1" fill="#5c6570"/><rect x="18" y="11" width="2" height="1" fill="#5c6570"/><path d="M8 18h16v2H8z" fill="#d7c79e"/></g>
<!-- Ashley --> <g transform="translate(64 0)"><ellipse cx="16" cy="28" rx="7" ry="2" fill="#071019" opacity=".4"/><path d="M8 14h16v13H8z" fill="#bd5fa0"/><path d="M10 7h12v9H10z" fill="#ee8fba"/><path d="M12 9h8v6h-8z" fill="#e5b08d"/><rect x="13" y="11" width="2" height="2" fill="#313a46"/><rect x="19" y="11" width="2" height="2" fill="#313a46"/><rect x="10" y="18" width="12" height="2" fill="#8b5cf6"/></g>
<!-- Fermin --> <g transform="translate(96 0)"><ellipse cx="16" cy="28" rx="7" ry="2" fill="#071019" opacity=".4"/><path d="M8 14h16v13H8z" fill="#8a3838"/><path d="M10 7h12v9H10z" fill="#a95e37"/><path d="M12 9h8v6h-8z" fill="#dfaa84"/><rect x="13" y="11" width="2" height="2" fill="#303846"/><rect x="19" y="11" width="2" height="2" fill="#303846"/><rect x="8" y="18" width="16" height="3" fill="#575d67"/></g>
<!-- Isabella --> <g transform="translate(128 0)"><ellipse cx="16" cy="28" rx="6" ry="2" fill="#071019" opacity=".4"/><path d="M9 15h14v12H9z" fill="#4e2c73"/><path d="M10 8h12v9H10z" fill="#3b2459"/><path d="M12 10h8v6h-8z" fill="#e4b28e"/><rect x="13" y="12" width="2" height="2" fill="#6546a0"/><rect x="19" y="12" width="2" height="2" fill="#6546a0"/><path d="M8 7h16l-4-5h-8z" fill="#39204f"/></g>
<!-- Gael --> <g transform="translate(160 0)"><ellipse cx="16" cy="28" rx="6" ry="2" fill="#071019" opacity=".4"/><path d="M9 15h14v12H9z" fill="#477348"/><path d="M10 8h12v9H10z" fill="#b66a35"/><path d="M12 10h8v6h-8z" fill="#e3ad88"/><rect x="13" y="12" width="2" height="2" fill="#334238"/><rect x="19" y="12" width="2" height="2" fill="#334238"/><path d="M22 13h3v12h-3z" fill="#806044"/></g>
<!-- Ivan --> <g transform="translate(192 0)"><ellipse cx="16" cy="28" rx="8" ry="2" fill="#071019" opacity=".4"/><path d="M7 14h18v13H7z" fill="#405c78"/><path d="M10 7h12v9H10z" fill="#d6dadd"/><path d="M12 9h8v6h-8z" fill="#d7aa87"/><rect x="12" y="11" width="4" height="2" fill="#6ed4e8"/><rect x="18" y="11" width="4" height="2" fill="#6ed4e8"/><rect x="8" y="18" width="16" height="2" fill="#3fc7c9"/></g>
<!-- Val --> <g transform="translate(224 0)"><ellipse cx="16" cy="28" rx="8" ry="2" fill="#071019" opacity=".4"/><path d="M7 14h18v13H7z" fill="#5d8870"/><path d="M10 7h12v9H10z" fill="#76513c"/><path d="M12 9h8v6h-8z" fill="#dfae8a"/><rect x="13" y="11" width="2" height="2" fill="#34443c"/><rect x="19" y="11" width="2" height="2" fill="#34443c"/><rect x="8" y="18" width="16" height="2" fill="#d6efe2"/></g>
<!-- Rola --> <g transform="translate(256 0)"><ellipse cx="16" cy="28" rx="7" ry="2" fill="#071019" opacity=".4"/><path d="M8 15h16v12H8z" fill="#668f62"/><path d="M10 8h12v9H10z" fill="#6a4937"/><path d="M12 10h8v6h-8z" fill="#e2b08d"/><rect x="13" y="12" width="2" height="2" fill="#314034"/><rect x="19" y="12" width="2" height="2" fill="#314034"/></g>
<!-- Mela --> <g transform="translate(288 0)"><ellipse cx="16" cy="28" rx="6" ry="2" fill="#071019" opacity=".4"/><path d="M9 16h14v11H9z" fill="#88a96f"/><path d="M10 9h12v8H10z" fill="#80543d"/><path d="M12 11h8v5h-8z" fill="#e5b28f"/><rect x="13" y="13" width="2" height="1" fill="#344331"/><rect x="19" y="13" width="2" height="1" fill="#344331"/></g>
</svg>