<svg xmlns="http://www.w3.org/2000/svg" width="72" height="96" viewBox="0 0 72 96" shape-rendering="crispEdges">
<defs>
  <g id="pet-down"><ellipse cx="12" cy="20" rx="8" ry="3" fill="#071019" opacity=".4"/><path d="M4 10h16v9H4z" fill="#eefcf7"/><path d="M6 5h4v7H6zM14 5h4v7h-4z" fill="#c8fff0"/><path d="M5 6l3-4 2 5zM14 6l3-4 2 5z" fill="#8b5cf6"/><rect x="8" y="11" width="2" height="2" fill="#2d3140"/><rect x="15" y="11" width="2" height="2" fill="#2d3140"/><rect x="11" y="14" width="3" height="2" fill="#ff8c42"/><path d="M18 15h5v3h-5z" fill="#f2b4ff"/><rect x="20" y="13" width="3" height="2" fill="#8b5cf6"/></g>
  <g id="pet-side"><ellipse cx="12" cy="20" rx="8" ry="3" fill="#071019" opacity=".4"/><path d="M5 10h15v9H5z" fill="#eefcf7"/><path d="M8 5h4v7H8z" fill="#c8fff0"/><path d="M8 6l3-4 2 5z" fill="#8b5cf6"/><rect x="9" y="11" width="2" height="2" fill="#2d3140"/><rect x="5" y="15" width="5" height="3" fill="#f2b4ff"/><path d="M18 14h6v3h-6z" fill="#f2b4ff"/><rect x="21" y="12" width="3" height="2" fill="#8b5cf6"/></g>
  <g id="pet-up"><ellipse cx="12" cy="20" rx="8" ry="3" fill="#071019" opacity=".4"/><path d="M4 10h16v9H4z" fill="#e3f7f2"/><path d="M6 5h4v7H6zM14 5h4v7h-4z" fill="#bdf5e8"/><path d="M5 6l3-4 2 5zM14 6l3-4 2 5z" fill="#8b5cf6"/><path d="M18 15h5v3h-5z" fill="#f2b4ff"/><rect x="20" y="13" width="3" height="2" fill="#8b5cf6"/></g>
</defs>
<g transform="translate(0 0)"><use href="#pet-down"/></g><g transform="translate(24 0)"><use href="#pet-down"/><rect x="5" y="18" width="5" height="2" fill="#c8fff0"/></g><g transform="translate(48 0)"><use href="#pet-down"/><rect x="14" y="18" width="5" height="2" fill="#c8fff0"/></g>
<g transform="translate(0 24)"><use href="#pet-side"/></g><g transform="translate(24 24)"><use href="#pet-side"/><rect x="6" y="18" width="5" height="2" fill="#c8fff0"/></g><g transform="translate(48 24)"><use href="#pet-side"/><rect x="14" y="18" width="5" height="2" fill="#c8fff0"/></g>
<g transform="translate(0 48) scale(-1 1) translate(-24 0)"><use href="#pet-side"/></g><g transform="translate(24 48) scale(-1 1) translate(-24 0)"><use href="#pet-side"/></g><g transform="translate(48 48) scale(-1 1) translate(-24 0)"><use href="#pet-side"/></g>
<g transform="translate(0 72)"><use href="#pet-up"/></g><g transform="translate(24 72)"><use href="#pet-up"/><rect x="5" y="18" width="5" height="2" fill="#bdf5e8"/></g><g transform="translate(48 72)"><use href="#pet-up"/><rect x="14" y="18" width="5" height="2" fill="#bdf5e8"/></g>
</svg>