<svg xmlns="http://www.w3.org/2000/svg" width="1600" height="900" viewBox="0 0 1600 900"><defs><linearGradient id="sky" x1="0" y1="0" x2="1" y2="1"><stop stop-color="#03150d"/><stop offset=".38" stop-color="#073923"/><stop offset=".72" stop-color="#0b5d37"/><stop offset="1" stop-color="#071017"/></linearGradient><radialGradient id="canopy"><stop stop-color="#75ffd0" stop-opacity=".44"/><stop offset=".55" stop-color="#21c987" stop-opacity=".15"/><stop offset="1" stop-color="#21c987" stop-opacity="0"/></radialGradient><linearGradient id="mist" x1="0" y1="0" x2="1" y2="0"><stop stop-color="#63f7ba" stop-opacity="0"/><stop offset=".5" stop-color="#8ffff0" stop-opacity=".12"/><stop offset="1" stop-color="#63f7ba" stop-opacity="0"/></linearGradient><filter id="blur"><feGaussianBlur stdDeviation="16"/></filter></defs><rect width="1600" height="900" fill="url(#sky)"/><ellipse cx="1035" cy="160" rx="560" ry="330" fill="url(#canopy)"/><g opacity=".32" fill="#b6ffe4"><circle cx="280" cy="160" r="3"/><circle cx="352" cy="238" r="5"/><circle cx="632" cy="148" r="3"/><circle cx="812" cy="255" r="4"/><circle cx="1240" cy="190" r="5"/><circle cx="1380" cy="320" r="3"/></g><g fill="#061d13"><path d="M0 610C120 528 205 500 300 508s164 80 285 50c124-31 171-122 310-112 161 11 228 130 360 92 129-37 190-124 345-95v278H0Z"/><path d="M95 540c42-195 82-328 129-418 21 136 24 285 41 418zm215 20c28-156 68-284 115-374 15 123 17 253 31 374zm820-28c36-198 84-344 138-440 18 145 24 293 33 440zm205 36c27-152 61-267 98-349 15 114 19 228 25 349z"/></g><g opacity=".78" fill="#0f5132"><path d="M160 548c38-109 92-178 162-206-23 64-27 124-18 183-50-14-98-6-144 23z"/><path d="M1180 544c46-124 109-204 193-240-31 79-34 150-22 213-64-15-120-6-171 27z"/></g><g fill="#48f6ad" stroke="#c4fff1" stroke-width="3"><path d="M425 658l44-159 46 159-45 79z"/><path d="M1020 622l57-204 60 204-59 96z"/><path d="M790 713l35-118 38 118-37 60z"/><path d="M1215 710l26-86 29 86-29 49z"/></g><g fill="#0ce69b" opacity=".45" filter="url(#blur)"><ellipse cx="470" cy="640" rx="90" ry="44"/><ellipse cx="1075" cy="608" rx="125" ry="56"/></g><g fill="#d6ff79"><circle cx="300" cy="260" r="7"/><circle cx="694" cy="334" r="5"/><circle cx="890" cy="230" r="6"/><circle cx="1245" cy="280" r="8"/><circle cx="1380" cy="390" r="5"/></g><path d="M0 690c185-54 335 20 512-12 169-31 279-101 456-72 182 30 296 106 632 4v290H0Z" fill="#020907" fill-opacity=".94"/><path d="M0 720c198-42 360 45 555 2 183-40 288-80 472-31 188 50 326 56 573-13" fill="none" stroke="#57ffc0" stroke-opacity=".28" stroke-width="4"/><path d="M0 590h1600v92H0z" fill="url(#mist)" opacity=".68"/><g stroke="#74ffd0" stroke-opacity=".16" fill="none"><path d="M430 170c190-90 415-84 615 10"/><path d="M350 205c246-126 536-119 785 12"/><path d="M520 126c124-48 288-49 421-3"/></g></svg>