<svg xmlns="http://www.w3.org/2000/svg" viewBox="0 0 1600 900">
<defs><linearGradient id="sky" x1="0" y1="0" x2="1" y2="1"><stop stop-color="#04100c"/><stop offset=".42" stop-color="#08101c"/><stop offset="1" stop-color="#17081d"/></linearGradient><radialGradient id="green"><stop stop-color="#71ff9e" stop-opacity=".72"/><stop offset="1" stop-color="#0d8f5c" stop-opacity="0"/></radialGradient><radialGradient id="violet"><stop stop-color="#c87cff" stop-opacity=".68"/><stop offset="1" stop-color="#6f3cff" stop-opacity="0"/></radialGradient><radialGradient id="gold"><stop stop-color="#ffd37d" stop-opacity=".78"/><stop offset="1" stop-color="#ff8c42" stop-opacity="0"/></radialGradient><linearGradient id="ether" x1="0" y1="0" x2="0" y2="1"><stop stop-color="#8af7ff"/><stop offset="1" stop-color="#2457ff" stop-opacity=".25"/></linearGradient><linearGradient id="prism" x1="0" y1="0" x2="1" y2="1"><stop stop-color="#7dffbf"/><stop offset=".45" stop-color="#8a6cff"/><stop offset="1" stop-color="#ff9a52"/></linearGradient></defs>
<rect width="1600" height="900" fill="url(#sky)"/><ellipse cx="220" cy="500" rx="470" ry="430" fill="url(#green)"/><ellipse cx="1380" cy="430" rx="450" ry="420" fill="url(#violet)"/><ellipse cx="820" cy="820" rx="620" ry="220" fill="url(#gold)" opacity=".16"/><g fill="none" stroke="url(#prism)" opacity=".3"><circle cx="800" cy="390" r="300"/><circle cx="800" cy="390" r="360" stroke-opacity=".4"/><path d="M120 660 Q500 440 800 610 T1490 560"/></g>
<g fill="#0e2a1c" opacity=".95"><path d="M0 900V650L80 590 140 640 230 520 330 660 420 560 500 900Z"/><path d="M80 670l35-120 24 120zM170 700l42-180 35 180zM300 710l34-150 30 150z" fill="#18472d"/></g><g fill="#24112f" opacity=".9"><path d="M1110 900l74-250 76 90 84-330 74 280 70-120 112 330z"/><path d="M1210 650l46-260 45 260zM1340 590l65-330 51 330zM1490 720l34-190 38 190z" fill="#4a1d63"/></g>
<g id="player" transform="translate(235 430)"><path d="M-105 245Q-72 78-56-38Q0-92 56-38 72 78 105 245L58 320H-58Z" fill="#0b2440" fill-opacity=".76" stroke="url(#ether)" stroke-width="7"/><path d="M-50-62Q0-126 50-62L28-12 0 18-28-12Z" fill="#101d2e" stroke="#87efff" stroke-width="6"/><path d="M-20-45L0-64 20-45 0-16Z" fill="#65e4ff" opacity=".42"/><path d="M-62 12L-148 116M62 12L146 116" stroke="#63dfff" stroke-width="9" opacity=".65"/><path d="M-78 230L-150 318M78 230L150 318" stroke="#4aa8ff" stroke-width="8" opacity=".44"/></g>
<g id="xethkioz" transform="translate(1320 575) scale(.9)"><path d="M-120 62Q-210-8-160-82Q-100-118-48-70Q-20-150 72-132Q142-112 138-35Q206-8 182 68Q132 130 48 94Q-18 150-82 104Z" fill="#29193b" fill-opacity=".8" stroke="url(#prism)" stroke-width="7"/><path d="M-80-42L-122-130-38-72 10-150 44-72 126-126 90-34" fill="#131825" stroke="#b38cff" stroke-width="6"/><circle cx="42" cy="-22" r="8" fill="#ffd36e"/><path d="M-138 74Q-232 138-270 230M-98 100Q-185 178-190 264M-42 116Q-105 210-78 284M22 118Q-16 220 20 292" fill="none" stroke="#9b70ff" stroke-width="18" stroke-linecap="round" opacity=".65"/><path d="M-12 58l28-46 30 46-30 28z" fill="#ffba61" opacity=".65"/></g>
<g id="family-constellation" fill="#101521" stroke-width="4"><path d="M420 248Q800 120 1180 262M438 612Q800 770 1160 610" fill="none" stroke="url(#prism)" stroke-opacity=".28" stroke-dasharray="10 18"/><g transform="translate(440 255)"><circle r="66" fill="#20142d" stroke="#d39aff"/><path d="M-32 34Q0 5 32 34V54H-32Z" fill="#8c5cff" opacity=".45"/><circle cy="-4" r="21" fill="#d8b2ff" opacity=".25"/><path d="M-18-18L0-36 18-18 10 0H-10Z" fill="#c47fff" opacity=".8"/><path d="M-48 0L-66-24M48 0L66-24" stroke="#c47fff" opacity=".6"/></g><g transform="translate(478 605)"><circle r="62" fill="#0d2030" stroke="#6ddfff"/><path d="M-30 32Q0 7 30 32V50H-30Z" fill="#4fc6ff" opacity=".42"/><circle cy="-5" r="20" fill="#8cecff" opacity=".23"/><path d="M-22-12L0-32 22-12 0 12Z" fill="#62d8ff" opacity=".76"/><path d="M42 8l32 18-32 18" fill="none" stroke="#8cecff" stroke-width="5"/></g><g transform="translate(1118 275)"><circle r="64" fill="#2c1c12" stroke="#ffb66d"/><path d="M-31 33Q0 7 31 33V52H-31Z" fill="#ff9c54" opacity=".42"/><circle cy="-5" r="20" fill="#ffd39d" opacity=".22"/><path d="M0-34L18-9 0 11-18-9Z" fill="#ffb25d" opacity=".8"/><path d="M-46-4L-66 22M46-4L66 22" stroke="#ffb66d" opacity=".6"/></g><g transform="translate(1140 610)"><circle r="60" fill="#0e251b" stroke="#76ffb8"/><path d="M-29 31Q0 8 29 31V49H-29Z" fill="#58e99b" opacity=".4"/><circle cy="-5" r="19" fill="#a9ffd0" opacity=".22"/><path d="M-18-16L0-34 18-16 8 4H-8Z" fill="#71ffae" opacity=".76"/><path d="M-44 0L-64-22M44 0L64-22" stroke="#76ffb8" opacity=".6"/></g></g>
<g opacity=".72" fill="url(#prism)"><path d="M220 270l18 36-18 36-18-36z"/><path d="M300 430l12 24-12 24-12-24z"/><path d="M420 200l14 28-14 28-14-28z"/><path d="M1180 250l18 36-18 36-18-36z"/><path d="M1300 390l13 26-13 26-13-26z"/><path d="M1430 220l15 30-15 30-15-30z"/><path d="M690 165l10 20-10 20-10-20z"/><path d="M880 150l10 20-10 20-10-20z"/></g><g fill="#fff" opacity=".7"><circle cx="214" cy="180" r="2"/><circle cx="330" cy="250" r="1.5"/><circle cx="570" cy="210" r="2"/><circle cx="1030" cy="180" r="1.5"/><circle cx="1260" cy="210" r="2"/><circle cx="1410" cy="330" r="1.5"/></g><rect y="730" width="1600" height="170" fill="url(#gold)" opacity=".07"/></svg>